<svg width="250" height="232" viewBox="0 0 250 232" fill="none" xmlns="http://www.w3.org/2000/svg">
<path d="M140.864 136.423L99.4926 136.423L193.016 16.0107L177.097 101.574L226.843 101.574L117.401 209.026L140.864 136.423Z" fill="#ECCE2F"/>
<path d="M8.6875 75.9911H7.65625C6.21875 75.9911 5.30208 75.8036 4.90625 75.4286C4.51042 75.0536 4.3125 74.4182 4.3125 73.5224V73.0536C4.3125 71.8661 4.60417 70.5745 5.1875 69.1786C5.77083 67.7828 6.23958 66.3557 6.59375 64.8974C6.94792 63.4391 7.625 59.6682 8.625 53.5849C9.64583 47.5016 10.1562 43.0745 10.1562 40.3036L10.0625 37.6161C10.0625 35.1786 10.5938 33.5536 11.6562 32.7411C12.4062 32.1578 13.7083 31.8661 15.5625 31.8661H16.0938C17.7396 31.8661 18.5625 32.5536 18.5625 33.9286V34.8349C18.5625 35.7724 18.2708 37.0224 17.6875 38.5849C17.1042 40.1474 16.1458 44.9391 14.8125 52.9599C13.4792 60.9807 12.8125 66.3141 12.8125 68.9599C12.8125 71.6057 12.5 73.4391 11.875 74.4599C11.25 75.4807 10.1875 75.9911 8.6875 75.9911ZM47.0425 54.7099C47.0425 55.0641 46.8446 56.6995 46.4487 59.6161C46.0737 62.512 45.8133 65.2828 45.6675 67.9286C45.5425 70.5745 45.3654 72.3974 45.1362 73.3974C44.9279 74.3766 44.2196 74.8661 43.0112 74.8661C41.8237 74.8661 41.0008 74.5432 40.5425 73.8974C40.105 73.2516 39.8862 72.1161 39.8862 70.4911C39.8862 68.8661 40.1154 66.1891 40.5737 62.4599C41.0321 58.7099 41.2612 56.0953 41.2612 54.6161C41.2612 53.1161 40.8133 51.9391 39.9175 51.0849C39.0425 50.2307 37.9592 49.8036 36.6675 49.8036C35.3967 49.8036 34.1258 50.1474 32.855 50.8349C31.5842 51.5224 30.605 52.387 29.9175 53.4286C28.6258 55.3453 27.4904 58.9182 26.5112 64.1474C25.5321 69.3557 24.8446 72.3974 24.4487 73.2724C23.7821 74.7516 22.5946 75.4911 20.8862 75.4911C19.7821 75.4911 19.23 75.0953 19.23 74.3036C19.23 73.8661 19.6883 71.2307 20.605 66.3974C21.5425 61.5432 22.1675 57.7516 22.48 55.0224C22.8133 52.2724 23.2196 50.0641 23.6987 48.3974C24.1987 46.7307 24.9696 45.8974 26.0112 45.8974C27.0737 45.8974 27.8342 46.3245 28.2925 47.1786C28.3967 47.3661 28.5321 47.7828 28.6987 48.4286C28.8862 49.0536 29.0737 49.3661 29.2612 49.3661C29.5529 49.3661 30.1779 49.012 31.1362 48.3036C33.9071 46.262 36.4071 45.2411 38.6362 45.2411H39.4175C41.8967 45.2411 43.7821 46.0536 45.0737 47.6786C46.3862 49.3036 47.0425 51.3766 47.0425 53.8974V54.7099ZM65.3037 44.6786C67.5329 44.6786 69.6996 45.3245 71.8037 46.6161C72.5954 47.0953 72.9912 47.5016 72.9912 47.8349V48.3661C72.9912 49.7203 72.2933 50.3974 70.8975 50.3974C70.4183 50.3974 69.3558 50.1578 67.71 49.6786C66.085 49.1786 64.585 48.9286 63.21 48.9286C61.835 48.9286 60.6892 49.3453 59.7725 50.1786C58.8558 50.9911 58.3975 51.9599 58.3975 53.0849C58.3975 54.2099 58.9808 55.1578 60.1475 55.9286C60.6683 56.2828 62.1058 56.9703 64.46 57.9911C66.835 59.012 68.5225 59.9911 69.5225 60.9286C71.0017 62.3245 71.7412 64.2516 71.7412 66.7099C71.7412 69.1682 70.5954 71.4078 68.3037 73.4286C66.0121 75.4495 63.1475 76.4599 59.71 76.4599H58.21C56.3558 76.4599 54.3558 76.0641 52.21 75.2724C50.085 74.4599 49.0225 73.6266 49.0225 72.7724V72.2099C49.0225 71.6682 49.2933 71.1578 49.835 70.6786C50.3767 70.1995 50.9079 69.9599 51.4287 69.9599C51.9496 69.9599 53.1371 70.3036 54.9912 70.9911C56.8454 71.6578 58.5537 71.9911 60.1162 71.9911C61.6787 71.9911 63.0746 71.5328 64.3037 70.6161C65.5537 69.6995 66.1787 68.5745 66.1787 67.2411C66.1787 65.887 65.5433 64.7724 64.2725 63.8974C63.6267 63.4599 62.1371 62.7828 59.8037 61.8661C57.4912 60.9495 55.7517 59.8974 54.585 58.7099C53.4392 57.5016 52.8662 55.8974 52.8662 53.8974C52.8662 51.2724 53.9079 49.0745 55.9912 47.3036C58.0746 45.5328 60.6892 44.6474 63.835 44.6474L64.5537 44.6786H65.3037ZM93.5338 45.8661V46.7724C93.5338 47.9391 92.5546 48.6995 90.5963 49.0536C88.6379 49.4078 87.3775 50.1474 86.815 51.2724C86.565 51.7724 85.9817 53.6786 85.065 56.9911C84.1692 60.2828 83.7213 63.5328 83.7213 66.7411C83.7213 68.1995 84.0233 69.1995 84.6275 69.7411C85.2317 70.2828 85.9921 70.6161 86.9088 70.7411C87.8463 70.8453 88.4504 70.9599 88.7213 71.0849C89.4921 71.4599 89.8775 72.0953 89.8775 72.9911C89.8775 73.8661 89.5546 74.5224 88.9088 74.9599C87.8254 75.7099 86.4192 76.0849 84.69 76.0849H83.5338C81.6588 76.0849 80.1796 75.4286 79.0963 74.1161C78.0129 72.7828 77.4713 71.1057 77.4713 69.0849C77.4713 67.0432 77.815 64.1891 78.5025 60.5224C79.2108 56.8557 79.565 53.7828 79.565 51.3036C79.565 50.3453 79.065 49.6682 78.065 49.2724C77.0858 48.8766 76.5963 48.3453 76.5963 47.6786C76.5963 46.4911 77.2838 45.5953 78.6588 44.9911C80.4296 44.2203 81.4713 43.5432 81.7838 42.9599C81.9296 42.6891 82.2213 41.637 82.6588 39.8036C83.1171 37.9495 83.5233 36.7828 83.8775 36.3036C84.6275 35.262 85.5963 34.7411 86.7838 34.7411C87.9921 34.7411 88.5963 35.4078 88.5963 36.7411L88.5025 37.3349L88.2838 39.1786C88.1588 40.3661 88.0963 41.3453 88.0963 42.1161C88.0963 42.887 88.2733 43.3974 88.6275 43.6474C89.0025 43.8766 89.9088 44.1995 91.3463 44.6161C92.8046 45.012 93.5338 45.4286 93.5338 45.8661ZM99.295 62.7411V64.3661C99.295 66.4495 99.7846 68.1578 100.764 69.4911C101.743 70.8245 102.972 71.4911 104.451 71.4911H105.076C105.097 71.4911 105.128 71.4911 105.17 71.4911C106.212 71.4911 107.378 71.1057 108.67 70.3349C111.316 68.7724 113.243 65.9599 114.451 61.8974C115.076 59.8141 115.389 58.0224 115.389 56.5224L115.451 55.8661L115.482 54.6161V54.3036C115.482 52.1578 115.139 50.7203 114.451 49.9911C113.785 49.262 112.597 48.8974 110.889 48.8974H110.232L109.92 48.9286C109.024 48.9286 107.93 49.2307 106.639 49.8349C105.347 50.4391 104.139 51.4286 103.014 52.8036C101.889 54.1786 100.982 55.7932 100.295 57.6474C99.6283 59.5016 99.295 61.1995 99.295 62.7411ZM122.295 49.1161V49.6474C122.295 50.5849 122.087 52.0536 121.67 54.0536C120.607 59.2411 120.076 63.8766 120.076 67.9599C120.076 68.0432 120.076 68.1266 120.076 68.2099L120.107 69.1474V69.9911L120.295 71.9599C120.295 72.5849 120.097 73.1891 119.701 73.7724C119.326 74.3349 118.701 74.6161 117.826 74.6161C116.972 74.6161 116.201 74.0849 115.514 73.0224C114.826 71.9391 114.264 71.3974 113.826 71.3974C113.743 71.3974 113.212 71.7411 112.232 72.4286C111.253 73.1161 110.285 73.6266 109.326 73.9599C106.243 75.0224 104.274 75.5536 103.42 75.5536H102.264C99.6804 75.5536 97.5658 74.5016 95.92 72.3974C94.2742 70.2932 93.4512 67.7411 93.4512 64.7411V64.1474C93.4721 61.8557 93.92 59.4807 94.795 57.0224C95.67 54.5641 96.8679 52.4599 98.3887 50.7099C101.743 46.8141 105.576 44.8661 109.889 44.8661H109.951C111.639 44.8661 113.441 45.2516 115.357 46.0224C117.295 46.7932 118.42 47.1786 118.732 47.1786L120.514 46.8036C121.701 46.8036 122.295 47.5745 122.295 49.1161ZM151.9 54.7099C151.9 55.0641 151.702 56.6995 151.306 59.6161C150.931 62.512 150.671 65.2828 150.525 67.9286C150.4 70.5745 150.223 72.3974 149.994 73.3974C149.785 74.3766 149.077 74.8661 147.869 74.8661C146.681 74.8661 145.858 74.5432 145.4 73.8974C144.963 73.2516 144.744 72.1161 144.744 70.4911C144.744 68.8661 144.973 66.1891 145.431 62.4599C145.89 58.7099 146.119 56.0953 146.119 54.6161C146.119 53.1161 145.671 51.9391 144.775 51.0849C143.9 50.2307 142.817 49.8036 141.525 49.8036C140.254 49.8036 138.983 50.1474 137.713 50.8349C136.442 51.5224 135.463 52.387 134.775 53.4286C133.483 55.3453 132.348 58.9182 131.369 64.1474C130.39 69.3557 129.702 72.3974 129.306 73.2724C128.64 74.7516 127.452 75.4911 125.744 75.4911C124.64 75.4911 124.088 75.0953 124.088 74.3036C124.088 73.8661 124.546 71.2307 125.463 66.3974C126.4 61.5432 127.025 57.7516 127.338 55.0224C127.671 52.2724 128.077 50.0641 128.556 48.3974C129.056 46.7307 129.827 45.8974 130.869 45.8974C131.931 45.8974 132.692 46.3245 133.15 47.1786C133.254 47.3661 133.39 47.7828 133.556 48.4286C133.744 49.0536 133.931 49.3661 134.119 49.3661C134.41 49.3661 135.035 49.012 135.994 48.3036C138.765 46.262 141.265 45.2411 143.494 45.2411H144.275C146.754 45.2411 148.64 46.0536 149.931 47.6786C151.244 49.3036 151.9 51.3766 151.9 53.8974V54.7099ZM173.536 45.8661V46.7724C173.536 47.9391 172.557 48.6995 170.599 49.0536C168.64 49.4078 167.38 50.1474 166.818 51.2724C166.568 51.7724 165.984 53.6786 165.068 56.9911C164.172 60.2828 163.724 63.5328 163.724 66.7411C163.724 68.1995 164.026 69.1995 164.63 69.7411C165.234 70.2828 165.995 70.6161 166.911 70.7411C167.849 70.8453 168.453 70.9599 168.724 71.0849C169.495 71.4599 169.88 72.0953 169.88 72.9911C169.88 73.8661 169.557 74.5224 168.911 74.9599C167.828 75.7099 166.422 76.0849 164.693 76.0849H163.536C161.661 76.0849 160.182 75.4286 159.099 74.1161C158.015 72.7828 157.474 71.1057 157.474 69.0849C157.474 67.0432 157.818 64.1891 158.505 60.5224C159.213 56.8557 159.568 53.7828 159.568 51.3036C159.568 50.3453 159.068 49.6682 158.068 49.2724C157.088 48.8766 156.599 48.3453 156.599 47.6786C156.599 46.4911 157.286 45.5953 158.661 44.9911C160.432 44.2203 161.474 43.5432 161.786 42.9599C161.932 42.6891 162.224 41.637 162.661 39.8036C163.12 37.9495 163.526 36.7828 163.88 36.3036C164.63 35.262 165.599 34.7411 166.786 34.7411C167.995 34.7411 168.599 35.4078 168.599 36.7411L168.505 37.3349L168.286 39.1786C168.161 40.3661 168.099 41.3453 168.099 42.1161C168.099 42.887 168.276 43.3974 168.63 43.6474C169.005 43.8766 169.911 44.1995 171.349 44.6161C172.807 45.012 173.536 45.4286 173.536 45.8661ZM15.0625 105.366H17.1562L17.4688 105.335H17.7812C22.1771 105.335 25.4062 104.522 27.4688 102.897C28.5938 102.002 29.4896 100.856 30.1562 99.4599C30.8229 98.0432 31.1562 96.6786 31.1562 95.3661V94.3974C31.1562 92.3974 30.4583 90.8557 29.0625 89.7724C27.6875 88.6682 25.75 88.1161 23.25 88.1161H21.4062C18.4062 88.1161 16.7292 88.4286 16.375 89.0536L15.625 92.4911L15.25 94.5849C14.0833 100.127 13.5 103.387 13.5 104.366C13.5 105.033 14.0208 105.366 15.0625 105.366ZM37.1875 93.3036V94.0536C37.1875 96.4495 36.6771 98.7516 35.6562 100.96C33.7188 105.168 30.2188 107.949 25.1562 109.304C23.4688 109.762 21.0938 110.064 18.0312 110.21C14.9896 110.335 13.1458 110.793 12.5 111.585C12.2292 111.918 11.6667 114.324 10.8125 118.804C9.95833 123.262 9.51042 125.543 9.46875 125.647C8.88542 127.106 7.66667 127.835 5.8125 127.835H5.21875C4.11458 127.835 3.5625 127.522 3.5625 126.897V126.335C3.5625 125.627 3.95833 123.418 4.75 119.71C5.54167 116.002 6.6875 109.533 8.1875 100.304C9.70833 91.0745 10.5417 86.2099 10.6875 85.7099C10.9583 84.8349 11.7292 84.262 13 83.9911C14.2917 83.6995 16.7708 83.5536 20.4375 83.5536L21.8125 83.4911L23.9062 83.4599C30.3854 83.4599 34.5208 85.4286 36.3125 89.3661C36.8958 90.637 37.1875 91.9495 37.1875 93.3036ZM40.2612 115.085V115.741C40.2612 118.22 40.8237 120.168 41.9487 121.585C43.0946 123.002 44.7092 123.71 46.7925 123.71L47.1362 123.679C49.7196 123.679 52.0321 122.345 54.0737 119.679C56.1154 116.991 57.1362 114.074 57.1362 110.929L57.1987 110.304L57.23 108.991L57.1987 108.647C57.1987 106.085 56.6467 104.116 55.5425 102.741C54.4383 101.366 52.98 100.679 51.1675 100.679H50.48C49.3133 100.679 48.105 101.012 46.855 101.679C45.605 102.345 44.5217 103.324 43.605 104.616C41.3758 107.783 40.2612 111.272 40.2612 115.085ZM50.6675 96.1786H51.6675C54.8758 96.1786 57.6675 97.262 60.0425 99.4286C60.98 100.283 61.7821 101.47 62.4487 102.991C63.1362 104.512 63.48 106.147 63.48 107.897L63.4487 108.397V108.897C63.4487 108.939 63.4487 108.981 63.4487 109.022C63.4487 109.064 63.4487 109.106 63.4487 109.147C63.4487 111.356 62.9175 113.731 61.855 116.272C59.6467 121.543 56.6154 125.064 52.7612 126.835C50.6154 127.835 48.4071 128.335 46.1362 128.335H45.6362C43.9487 128.335 42.3654 128.033 40.8862 127.429C39.4071 126.804 38.2092 125.991 37.2925 124.991C35.2925 122.783 34.2925 119.96 34.2925 116.522V115.491C34.2925 113.262 34.6883 110.939 35.48 108.522C36.2925 106.106 37.4175 104.002 38.855 102.21C40.2925 100.397 42.0737 98.9391 44.1987 97.8349C46.3237 96.7307 48.48 96.1786 50.6675 96.1786ZM78.085 87.0536C78.085 88.1786 77.71 89.3036 76.96 90.4286C76.6058 90.9495 76.1475 91.2099 75.585 91.2099L74.7412 91.3661H74.1475L73.5537 91.3036L72.8662 91.1786C71.8246 91.1786 71.3037 90.4495 71.3037 88.9911V88.4911L71.3662 87.8661L71.4912 87.1161C71.4912 86.3661 71.7621 85.6682 72.3037 85.0224C72.8662 84.3557 73.4496 84.0224 74.0537 84.0224C74.1787 83.9807 74.2829 83.9599 74.3662 83.9599L74.8037 83.8974H75.1475C77.0225 83.8974 77.96 84.387 77.96 85.3661C78.0017 85.5328 78.0225 85.6474 78.0225 85.7099L78.085 86.1786V87.0536ZM67.6787 126.991H66.9287C65.9496 126.991 65.46 126.179 65.46 124.554V123.491C65.46 122.637 65.7308 120.981 66.2725 118.522C66.7725 116.064 67.3558 112.71 68.0225 108.46C68.6683 104.335 68.9912 102.095 68.9912 101.741L68.96 101.022L68.8975 100.397V99.7411C68.8975 98.5328 69.1371 97.6995 69.6162 97.2411C70.1162 96.7828 71.0642 96.5536 72.46 96.5536L72.8037 96.5849C74.5329 96.5849 75.3975 97.0953 75.3975 98.1161V98.8349C75.3975 99.3766 75.0017 101.689 74.21 105.772C73.4183 109.835 73.0225 113.293 73.0225 116.147L73.335 120.116L73.2725 121.304C73.2725 123.199 72.9079 124.627 72.1787 125.585C71.4496 126.522 69.9496 126.991 67.6787 126.991ZM105.878 106.71C105.878 107.064 105.68 108.699 105.284 111.616C104.909 114.512 104.648 117.283 104.503 119.929C104.378 122.574 104.2 124.397 103.971 125.397C103.763 126.377 103.055 126.866 101.846 126.866C100.659 126.866 99.8358 126.543 99.3775 125.897C98.94 125.252 98.7213 124.116 98.7213 122.491C98.7213 120.866 98.9504 118.189 99.4088 114.46C99.8671 110.71 100.096 108.095 100.096 106.616C100.096 105.116 99.6483 103.939 98.7525 103.085C97.8775 102.231 96.7942 101.804 95.5025 101.804C94.2317 101.804 92.9608 102.147 91.69 102.835C90.4192 103.522 89.44 104.387 88.7525 105.429C87.4608 107.345 86.3254 110.918 85.3463 116.147C84.3671 121.356 83.6796 124.397 83.2838 125.272C82.6171 126.752 81.4296 127.491 79.7213 127.491C78.6171 127.491 78.065 127.095 78.065 126.304C78.065 125.866 78.5233 123.231 79.44 118.397C80.3775 113.543 81.0025 109.752 81.315 107.022C81.6483 104.272 82.0546 102.064 82.5338 100.397C83.0338 98.7307 83.8046 97.8974 84.8463 97.8974C85.9088 97.8974 86.6692 98.3245 87.1275 99.1786C87.2317 99.3661 87.3671 99.7828 87.5338 100.429C87.7213 101.054 87.9088 101.366 88.0963 101.366C88.3879 101.366 89.0129 101.012 89.9713 100.304C92.7421 98.262 95.2421 97.2411 97.4713 97.2411H98.2525C100.732 97.2411 102.617 98.0536 103.909 99.6786C105.221 101.304 105.878 103.377 105.878 105.897V106.71ZM127.514 97.8661V98.7724C127.514 99.9391 126.535 100.699 124.576 101.054C122.618 101.408 121.357 102.147 120.795 103.272C120.545 103.772 119.962 105.679 119.045 108.991C118.149 112.283 117.701 115.533 117.701 118.741C117.701 120.199 118.003 121.199 118.607 121.741C119.212 122.283 119.972 122.616 120.889 122.741C121.826 122.845 122.43 122.96 122.701 123.085C123.472 123.46 123.857 124.095 123.857 124.991C123.857 125.866 123.535 126.522 122.889 126.96C121.805 127.71 120.399 128.085 118.67 128.085H117.514C115.639 128.085 114.16 127.429 113.076 126.116C111.993 124.783 111.451 123.106 111.451 121.085C111.451 119.043 111.795 116.189 112.482 112.522C113.191 108.856 113.545 105.783 113.545 103.304C113.545 102.345 113.045 101.668 112.045 101.272C111.066 100.877 110.576 100.345 110.576 99.6786C110.576 98.4911 111.264 97.5953 112.639 96.9911C114.41 96.2203 115.451 95.5432 115.764 94.9599C115.91 94.6891 116.201 93.637 116.639 91.8036C117.097 89.9495 117.503 88.7828 117.857 88.3036C118.607 87.262 119.576 86.7411 120.764 86.7411C121.972 86.7411 122.576 87.4078 122.576 88.7411L122.482 89.3349L122.264 91.1786C122.139 92.3661 122.076 93.3453 122.076 94.1161C122.076 94.887 122.253 95.3974 122.607 95.6474C122.982 95.8766 123.889 96.1995 125.326 96.6161C126.785 97.012 127.514 97.4286 127.514 97.8661ZM14.5 155.929H18.5312L18.8438 155.897L20.625 155.835C20.8333 155.814 21.0312 155.804 21.2188 155.804C23.6979 155.804 25.8646 154.949 27.7188 153.241C29.5938 151.512 30.5312 149.46 30.5312 147.085V145.866C30.5312 144.074 29.8125 142.689 28.375 141.71C26.9583 140.71 25.1354 140.21 22.9062 140.21H19.6875C17.3542 140.21 16.0417 140.502 15.75 141.085C15.5833 141.418 15.125 143.804 14.375 148.241C13.6458 152.679 13.2812 154.929 13.2812 154.991V155.241C13.2812 155.699 13.6875 155.929 14.5 155.929ZM14.5 160.741C13.1667 160.741 12.2917 161.47 11.875 162.929C11.625 163.783 11.2083 166.085 10.625 169.835C10.0417 173.564 9.55208 175.877 9.15625 176.772C8.42708 178.481 7.15625 179.335 5.34375 179.335C4.17708 179.335 3.59375 178.856 3.59375 177.897C3.59375 177.793 3.91667 175.647 4.5625 171.46C5.20833 167.272 5.86458 163.272 6.53125 159.46C7.21875 155.647 7.97917 151.043 8.8125 145.647C9.66667 140.252 10.1667 137.397 10.3125 137.085C10.7708 136.022 13.6354 135.491 18.9062 135.491H23.4375C29.6875 135.491 33.6875 137.366 35.4375 141.116C36.0417 142.408 36.3438 143.814 36.3438 145.335V146.241C36.3438 150.887 34.0729 154.752 29.5312 157.835C27.6771 159.085 26.75 160.106 26.75 160.897C26.75 161.168 27.0208 161.97 27.5625 163.304C28.1042 164.616 29.1667 167.449 30.75 171.804C32.3542 176.158 33.1562 178.481 33.1562 178.772C33.1562 179.293 32.6042 179.554 31.5 179.554H30.7188C28.8438 179.554 27.4167 178.72 26.4375 177.054C26.3958 176.991 25.6146 174.835 24.0938 170.585C22.5729 166.335 21.2812 163.637 20.2188 162.491C19.1562 161.324 17.25 160.741 14.5 160.741ZM53.4487 152.71H53.0112L52.7925 152.741C50.6675 152.741 48.7925 153.554 47.1675 155.179C44.8133 157.533 43.6362 159.679 43.6362 161.616C43.6362 162.241 44.0112 162.554 44.7612 162.554H45.1362L45.355 162.522L47.3862 162.366C48.1987 162.241 48.7404 162.179 49.0112 162.179C51.3446 162.179 53.8446 161.574 56.5112 160.366C57.6779 159.845 58.2612 158.949 58.2612 157.679V156.897C58.2612 155.731 57.8029 154.741 56.8862 153.929C55.9696 153.116 54.8237 152.71 53.4487 152.71ZM48.5425 180.147H47.855C46.3133 180.147 44.8133 179.866 43.355 179.304C41.9175 178.72 40.7092 177.908 39.73 176.866C37.73 174.72 36.73 171.939 36.73 168.522V167.179C36.73 165.074 37.1779 162.772 38.0737 160.272C39.9696 155.022 43.1258 151.481 47.5425 149.647C49.5217 148.814 51.4592 148.397 53.355 148.397H54.0425C56.8342 148.397 59.105 149.158 60.855 150.679C62.605 152.179 63.48 154.189 63.48 156.71V157.366C63.48 160.158 62.3758 162.21 60.1675 163.522C58.3967 164.585 54.5425 165.574 48.605 166.491C46.1467 166.866 44.7717 167.095 44.48 167.179C43.5842 167.449 43.1362 168.397 43.1362 170.022C43.1362 171.647 43.9175 173.002 45.48 174.085C46.5842 174.856 47.9175 175.241 49.48 175.241C51.0633 175.241 52.855 174.908 54.855 174.241C56.855 173.574 58.2404 173.241 59.0112 173.241C59.7821 173.241 60.1675 173.845 60.1675 175.054C60.1675 176.095 58.855 177.21 56.23 178.397C53.605 179.564 51.0425 180.147 48.5425 180.147ZM87.21 160.585V158.96C87.21 157.043 86.7725 155.731 85.8975 155.022C84.6892 154.064 83.085 153.585 81.085 153.585L80.7725 153.616C78.1475 153.616 75.7621 155.012 73.6162 157.804C71.4912 160.574 70.4287 163.689 70.4287 167.147V168.054C70.4287 173.324 72.3662 175.96 76.2412 175.96H76.5537C77.9496 175.96 79.3558 175.522 80.7725 174.647C82.21 173.772 83.3454 172.699 84.1787 171.429C85.0121 170.137 85.7204 168.293 86.3037 165.897C86.9079 163.502 87.21 161.731 87.21 160.585ZM72.6787 180.335C67.1579 180.335 64.3975 177.231 64.3975 171.022C64.3975 168.106 64.8975 165.314 65.8975 162.647C67.835 157.46 70.9183 153.824 75.1475 151.741C77.1892 150.72 79.1683 150.21 81.085 150.21H81.9287C82.8246 150.21 84.0121 150.647 85.4912 151.522C86.9704 152.377 87.8767 152.804 88.21 152.804L88.6475 152.616C90.0017 151.741 91.0329 151.304 91.7412 151.304C92.7204 151.304 93.21 151.804 93.21 152.804C93.21 155.283 92.335 161.033 90.585 170.054C88.8558 179.074 87.5121 184.543 86.5537 186.46C85.1996 189.168 83.2933 191.272 80.835 192.772C78.3975 194.293 75.8454 195.054 73.1787 195.054H72.2412C69.6371 195.054 67.4496 194.564 65.6787 193.585C63.9287 192.627 63.0537 191.554 63.0537 190.366C63.0537 189.762 63.3558 189.252 63.96 188.835C64.585 188.439 65.2412 188.241 65.9287 188.241C66.6371 188.241 67.7517 188.356 69.2725 188.585C70.7933 188.814 72.21 188.929 73.5225 188.929C74.835 188.929 76.1579 188.595 77.4912 187.929C78.8246 187.262 79.9287 186.366 80.8037 185.241C82.0954 183.595 82.7412 181.137 82.7412 177.866C82.7412 177.116 82.6058 176.741 82.335 176.741C82.2517 176.741 81.7517 177.054 80.835 177.679C78.2933 179.449 75.5746 180.335 72.6787 180.335ZM109.19 139.054C109.19 140.179 108.815 141.304 108.065 142.429C107.711 142.949 107.253 143.21 106.69 143.21L105.846 143.366H105.253L104.659 143.304L103.971 143.179C102.93 143.179 102.409 142.449 102.409 140.991V140.491L102.471 139.866L102.596 139.116C102.596 138.366 102.867 137.668 103.409 137.022C103.971 136.356 104.555 136.022 105.159 136.022C105.284 135.981 105.388 135.96 105.471 135.96L105.909 135.897H106.253C108.128 135.897 109.065 136.387 109.065 137.366C109.107 137.533 109.128 137.647 109.128 137.71L109.19 138.179V139.054ZM98.7838 178.991H98.0338C97.0546 178.991 96.565 178.179 96.565 176.554V175.491C96.565 174.637 96.8358 172.981 97.3775 170.522C97.8775 168.064 98.4608 164.71 99.1275 160.46C99.7733 156.335 100.096 154.095 100.096 153.741L100.065 153.022L100.003 152.397V151.741C100.003 150.533 100.242 149.699 100.721 149.241C101.221 148.783 102.169 148.554 103.565 148.554L103.909 148.585C105.638 148.585 106.503 149.095 106.503 150.116V150.835C106.503 151.377 106.107 153.689 105.315 157.772C104.523 161.835 104.128 165.293 104.128 168.147L104.44 172.116L104.378 173.304C104.378 175.199 104.013 176.627 103.284 177.585C102.555 178.522 101.055 178.991 98.7838 178.991ZM124.701 148.679C126.93 148.679 129.097 149.324 131.201 150.616C131.993 151.095 132.389 151.502 132.389 151.835V152.366C132.389 153.72 131.691 154.397 130.295 154.397C129.816 154.397 128.753 154.158 127.107 153.679C125.482 153.179 123.982 152.929 122.607 152.929C121.232 152.929 120.087 153.345 119.17 154.179C118.253 154.991 117.795 155.96 117.795 157.085C117.795 158.21 118.378 159.158 119.545 159.929C120.066 160.283 121.503 160.97 123.857 161.991C126.232 163.012 127.92 163.991 128.92 164.929C130.399 166.324 131.139 168.252 131.139 170.71C131.139 173.168 129.993 175.408 127.701 177.429C125.41 179.449 122.545 180.46 119.107 180.46H117.607C115.753 180.46 113.753 180.064 111.607 179.272C109.482 178.46 108.42 177.627 108.42 176.772V176.21C108.42 175.668 108.691 175.158 109.232 174.679C109.774 174.199 110.305 173.96 110.826 173.96C111.347 173.96 112.535 174.304 114.389 174.991C116.243 175.658 117.951 175.991 119.514 175.991C121.076 175.991 122.472 175.533 123.701 174.616C124.951 173.699 125.576 172.574 125.576 171.241C125.576 169.887 124.941 168.772 123.67 167.897C123.024 167.46 121.535 166.783 119.201 165.866C116.889 164.949 115.149 163.897 113.982 162.71C112.837 161.502 112.264 159.897 112.264 157.897C112.264 155.272 113.305 153.074 115.389 151.304C117.472 149.533 120.087 148.647 123.232 148.647L123.951 148.679H124.701ZM152.931 149.866V150.772C152.931 151.939 151.952 152.699 149.994 153.054C148.035 153.408 146.775 154.147 146.212 155.272C145.962 155.772 145.379 157.679 144.462 160.991C143.567 164.283 143.119 167.533 143.119 170.741C143.119 172.199 143.421 173.199 144.025 173.741C144.629 174.283 145.39 174.616 146.306 174.741C147.244 174.845 147.848 174.96 148.119 175.085C148.89 175.46 149.275 176.095 149.275 176.991C149.275 177.866 148.952 178.522 148.306 178.96C147.223 179.71 145.817 180.085 144.087 180.085H142.931C141.056 180.085 139.577 179.429 138.494 178.116C137.41 176.783 136.869 175.106 136.869 173.085C136.869 171.043 137.212 168.189 137.9 164.522C138.608 160.856 138.962 157.783 138.962 155.304C138.962 154.345 138.462 153.668 137.462 153.272C136.483 152.877 135.994 152.345 135.994 151.679C135.994 150.491 136.681 149.595 138.056 148.991C139.827 148.22 140.869 147.543 141.181 146.96C141.327 146.689 141.619 145.637 142.056 143.804C142.515 141.949 142.921 140.783 143.275 140.304C144.025 139.262 144.994 138.741 146.181 138.741C147.39 138.741 147.994 139.408 147.994 140.741L147.9 141.335L147.681 143.179C147.556 144.366 147.494 145.345 147.494 146.116C147.494 146.887 147.671 147.397 148.025 147.647C148.4 147.877 149.306 148.199 150.744 148.616C152.202 149.012 152.931 149.429 152.931 149.866ZM170.224 152.71H169.786L169.568 152.741C167.443 152.741 165.568 153.554 163.943 155.179C161.588 157.533 160.411 159.679 160.411 161.616C160.411 162.241 160.786 162.554 161.536 162.554H161.911L162.13 162.522L164.161 162.366C164.974 162.241 165.515 162.179 165.786 162.179C168.12 162.179 170.62 161.574 173.286 160.366C174.453 159.845 175.036 158.949 175.036 157.679V156.897C175.036 155.731 174.578 154.741 173.661 153.929C172.745 153.116 171.599 152.71 170.224 152.71ZM165.318 180.147H164.63C163.088 180.147 161.588 179.866 160.13 179.304C158.693 178.72 157.484 177.908 156.505 176.866C154.505 174.72 153.505 171.939 153.505 168.522V167.179C153.505 165.074 153.953 162.772 154.849 160.272C156.745 155.022 159.901 151.481 164.318 149.647C166.297 148.814 168.234 148.397 170.13 148.397H170.818C173.609 148.397 175.88 149.158 177.63 150.679C179.38 152.179 180.255 154.189 180.255 156.71V157.366C180.255 160.158 179.151 162.21 176.943 163.522C175.172 164.585 171.318 165.574 165.38 166.491C162.922 166.866 161.547 167.095 161.255 167.179C160.359 167.449 159.911 168.397 159.911 170.022C159.911 171.647 160.693 173.002 162.255 174.085C163.359 174.856 164.693 175.241 166.255 175.241C167.838 175.241 169.63 174.908 171.63 174.241C173.63 173.574 175.015 173.241 175.786 173.241C176.557 173.241 176.943 173.845 176.943 175.054C176.943 176.095 175.63 177.21 173.005 178.397C170.38 179.564 167.818 180.147 165.318 180.147ZM191.798 153.991C191.923 153.991 192.329 153.574 193.016 152.741C193.704 151.908 194.735 151.085 196.11 150.272C197.506 149.439 198.912 149.022 200.329 149.022H200.798C202.485 149.022 203.329 149.512 203.329 150.491C203.329 151.97 202.923 153.054 202.11 153.741C201.673 154.116 200.787 154.304 199.454 154.304C198.12 154.304 196.787 154.668 195.454 155.397C194.141 156.127 193.162 156.97 192.516 157.929C191.287 159.762 190.183 163.439 189.204 168.96C188.225 174.46 187.537 177.637 187.141 178.491C186.745 179.345 185.579 179.772 183.641 179.772H183.11C181.902 179.772 181.298 179.366 181.298 178.554V178.116C181.298 177.699 181.818 175.127 182.86 170.397C183.902 165.668 184.568 161.637 184.86 158.304C185.173 154.949 185.475 152.637 185.766 151.366C186.058 150.074 186.714 149.429 187.735 149.429C188.756 149.429 189.537 149.679 190.079 150.179C190.641 150.658 190.995 151.418 191.141 152.46C191.308 153.481 191.527 153.991 191.798 153.991Z" fill="#00519B"/>
</svg>
