<svg width="24" height="24" viewBox="0 0 24 24" fill="none" xmlns="http://www.w3.org/2000/svg">
<path d="M21.091 6.98C20.241 6.04 18.821 5.57 16.761 5.57H16.521V5.53C16.521 3.85 16.521 1.77 12.761 1.77H11.241C7.48101 1.77 7.48101 3.86 7.48101 5.53V5.58H7.24101C5.17101 5.58 3.76101 6.05 2.91101 6.99C1.92101 8.09 1.95101 9.57 2.05101 10.58L2.06101 10.65L2.13801 11.463C2.15301 11.613 2.23301 11.748 2.35901 11.83C2.59901 11.987 3.00001 12.246 3.24101 12.38C3.38101 12.47 3.53101 12.55 3.68101 12.63C5.39101 13.57 7.27101 14.2 9.18101 14.51C9.27101 15.45 9.68101 16.55 11.871 16.55C14.061 16.55 14.491 15.46 14.561 14.49C16.601 14.16 18.571 13.45 20.351 12.41C20.411 12.38 20.451 12.35 20.501 12.32C20.898 12.095 21.309 11.819 21.684 11.548C21.7398 11.5076 21.7866 11.4559 21.8212 11.3963C21.8558 11.3367 21.8776 11.2705 21.885 11.202L21.901 11.059L21.951 10.589C21.961 10.529 21.961 10.479 21.971 10.409C22.051 9.399 22.031 8.02 21.091 6.98ZM13.091 13.83C13.091 14.89 13.091 15.05 11.861 15.05C10.631 15.05 10.631 14.86 10.631 13.84V12.58H13.091V13.83ZM8.91101 5.57V5.53C8.91101 3.83 8.91101 3.2 11.241 3.2H12.761C15.091 3.2 15.091 3.84 15.091 5.53V5.58H8.91101V5.57Z" fill="#0A78DC"/>
<path d="M20.8729 13.735C20.9538 13.6965 21.0433 13.68 21.1326 13.6872C21.2218 13.6944 21.3076 13.725 21.3812 13.7759C21.4548 13.8268 21.5137 13.8963 21.552 13.9772C21.5902 14.0582 21.6064 14.1478 21.5989 14.237L21.2389 18.191C21.0289 20.191 20.2089 22.231 15.8089 22.231H8.18995C3.78995 22.231 2.96995 20.191 2.75995 18.201L2.41995 14.453C2.41238 14.3647 2.42805 14.2759 2.46541 14.1955C2.50277 14.1151 2.56052 14.0459 2.63291 13.9948C2.7053 13.9436 2.78982 13.9123 2.87807 13.9039C2.96631 13.8955 3.05522 13.9104 3.13595 13.947C4.27595 14.463 6.37795 15.377 7.67695 15.717C7.75802 15.739 7.83323 15.7786 7.89719 15.8331C7.96116 15.8876 8.0123 15.9555 8.04695 16.032C8.65395 17.33 9.96995 18.021 11.8709 18.021C13.7529 18.021 15.0859 17.303 15.6949 16.002C15.7297 15.9255 15.7808 15.8576 15.8448 15.8032C15.9087 15.7487 15.9839 15.7091 16.0649 15.687C17.4439 15.324 19.6829 14.302 20.8749 13.735H20.8729Z" fill="#0A78DC"/>
</svg>
