<svg width="24" height="24" viewBox="0 0 24 24" fill="none" xmlns="http://www.w3.org/2000/svg">
<path d="M21.271 9.17799C20.981 8.71799 20.671 8.28799 20.351 7.88799C20.2637 7.77733 20.154 7.68637 20.0291 7.62108C19.9042 7.55579 19.7669 7.51764 19.6262 7.50914C19.4855 7.50065 19.3446 7.52199 19.2127 7.57177C19.0808 7.62154 18.961 7.69864 18.861 7.79799L15.861 10.798C16.081 11.458 16.121 12.218 15.921 13.008C15.7423 13.7071 15.3788 14.3453 14.8685 14.8555C14.3583 15.3658 13.7201 15.7293 13.021 15.908C12.231 16.108 11.471 16.068 10.811 15.848L8.351 18.308C7.851 18.808 8.011 19.688 8.681 19.948C9.751 20.358 10.861 20.568 12.001 20.568C13.781 20.568 15.511 20.048 17.091 19.078C18.701 18.078 20.151 16.608 21.321 14.738C22.271 13.228 22.221 10.688 21.271 9.17799ZM14.02 9.97999L9.98 14.02C9.47 13.5 9.14 12.78 9.14 12C9.14 10.43 10.42 9.13999 12 9.13999C12.78 9.13999 13.5 9.46999 14.02 9.97999Z" fill="#00519B"/>
<path d="M18.25 5.74999L14.86 9.13999C14.486 8.76262 14.0403 8.46383 13.5492 8.26119C13.058 8.05855 12.5313 7.95614 12 7.95999C9.76 7.95999 7.96 9.76999 7.96 12C7.96 13.12 8.41 14.13 9.14 14.86L5.76 18.25H5.75C4.64 17.35 3.62 16.2 2.75 14.84C1.75 13.27 1.75 10.72 2.75 9.14999C3.91 7.32999 5.33 5.89999 6.91 4.91999C8.49 3.95999 10.22 3.42999 12 3.42999C14.23 3.42999 16.39 4.24999 18.25 5.74999ZM14.858 11.998C14.858 13.568 13.578 14.858 11.998 14.858C11.938 14.858 11.888 14.858 11.828 14.838L14.838 11.828C14.858 11.888 14.858 11.938 14.858 11.998Z" fill="#00519B"/>
<path d="M21.769 2.229C21.469 1.929 20.979 1.929 20.679 2.229L2.229 20.689C1.929 20.989 1.929 21.479 2.229 21.779C2.30019 21.8499 2.38478 21.906 2.47784 21.944C2.57091 21.9819 2.67059 22.001 2.77109 22.0001C2.87159 21.9991 2.97091 21.9782 3.06325 21.9386C3.1556 21.8989 3.23913 21.8413 3.309 21.769L21.769 3.309C22.079 3.009 22.079 2.529 21.769 2.229Z" fill="#00519B"/>
</svg>
