<svg width="25" height="24" viewBox="0 0 25 24" fill="none" xmlns="http://www.w3.org/2000/svg">
<path d="M12.5 12C13.8261 12 15.0978 11.4732 16.0355 10.5355C16.9732 9.59785 17.5 8.32608 17.5 7C17.5 5.67392 16.9732 4.40215 16.0355 3.46447C15.0978 2.52678 13.8261 2 12.5 2C11.1739 2 9.90212 2.52678 8.96444 3.46447C8.02676 4.40215 7.49997 5.67392 7.49997 7C7.49997 8.32608 8.02676 9.59785 8.96444 10.5355C9.90212 11.4732 11.1739 12 12.5 12ZM12.5 14.5C7.48997 14.5 3.40997 17.86 3.40997 22C3.40997 22.28 3.62997 22.5 3.90997 22.5H21.09C21.37 22.5 21.59 22.28 21.59 22C21.59 17.86 17.51 14.5 12.5 14.5Z" fill="white"/>
</svg>
